<?xml version="1.0" encoding="UTF-8"?>
<!DOCTYPE svg PUBLIC "-//W3C//DTD SVG 1.1//EN" "http://www.w3.org/Graphics/SVG/1.1/DTD/svg11.dtd">
<svg xmlns="http://www.w3.org/2000/svg" version="1.1" width="1024px" height="1024px" style="shape-rendering:geometricPrecision; text-rendering:geometricPrecision; image-rendering:optimizeQuality; fill-rule:evenodd; clip-rule:evenodd" xmlns:xlink="http://www.w3.org/1999/xlink">
<g><path style="opacity:0.004" fill="#fefffe" d="M 423.5,6.5 C 424.833,7.16667 424.833,7.16667 423.5,6.5 Z"/></g>
<g><path style="opacity:0.004" fill="#fefffe" d="M 759.5,8.5 C 760.833,9.16667 760.833,9.16667 759.5,8.5 Z"/></g>
<g><path style="opacity:0.004" fill="#fefffe" d="M 847.5,13.5 C 848.833,14.1667 848.833,14.1667 847.5,13.5 Z"/></g>
<g><path style="opacity:0.004" fill="#fefffe" d="M 644.5,17.5 C 645.833,18.1667 645.833,18.1667 644.5,17.5 Z"/></g>
<g><path style="opacity:0.004" fill="#fefffe" d="M 79.5,44.5 C 80.8333,45.1667 80.8333,45.1667 79.5,44.5 Z"/></g>
<g><path style="opacity:0.004" fill="#fefffe" d="M 522.5,79.5 C 523.833,80.1667 523.833,80.1667 522.5,79.5 Z"/></g>
<g><path style="opacity:0.004" fill="#fefffe" d="M 777.5,96.5 C 778.833,97.1667 778.833,97.1667 777.5,96.5 Z"/></g>
<g><path style="opacity:0.004" fill="#fefffe" d="M 192.5,107.5 C 193.833,108.167 193.833,108.167 192.5,107.5 Z"/></g>
<g><path style="opacity:0.004" fill="#fefffe" d="M 680.5,111.5 C 681.833,112.167 681.833,112.167 680.5,111.5 Z"/></g>
<g><path style="opacity:0.004" fill="#fefffe" d="M 950.5,118.5 C 951.833,119.167 951.833,119.167 950.5,118.5 Z"/></g>
<g><path style="opacity:0.004" fill="#fefffe" d="M 647.5,126.5 C 648.833,127.167 648.833,127.167 647.5,126.5 Z"/></g>
<g><path style="opacity:0.004" fill="#fefffe" d="M 1017.5,144.5 C 1018.83,145.167 1018.83,145.167 1017.5,144.5 Z"/></g>
<g><path style="opacity:0.004" fill="#fefffe" d="M 78.5,152.5 C 79.8333,153.167 79.8333,153.167 78.5,152.5 Z"/></g>
<g><path style="opacity:0.004" fill="#fefffe" d="M 273.5,152.5 C 274.833,153.167 274.833,153.167 273.5,152.5 Z"/></g>
<g><path style="opacity:0.004" fill="#fefffe" d="M 357.5,172.5 C 358.833,173.167 358.833,173.167 357.5,172.5 Z"/></g>
<g><path style="opacity:0.004" fill="#fefffe" d="M 996.5,192.5 C 997.833,193.167 997.833,193.167 996.5,192.5 Z"/></g>
<g><path style="opacity:0.004" fill="#fefffe" d="M 532.5,194.5 C 533.833,195.167 533.833,195.167 532.5,194.5 Z"/></g>
<g><path style="opacity:0.004" fill="#fefffe" d="M 338.5,224.5 C 339.833,225.167 339.833,225.167 338.5,224.5 Z"/></g>
<g><path style="opacity:0.004" fill="#fefffe" d="M 152.5,226.5 C 153.833,227.167 153.833,227.167 152.5,226.5 Z"/></g>
<g><path style="opacity:0.004" fill="#fefffe" d="M 539.5,240.5 C 540.833,241.167 540.833,241.167 539.5,240.5 Z"/></g>
<g><path style="opacity:0.004" fill="#fefffe" d="M 271.5,254.5 C 272.833,255.167 272.833,255.167 271.5,254.5 Z"/></g>
<g><path style="opacity:0.004" fill="#fefffe" d="M 275.5,266.5 C 276.833,267.167 276.833,267.167 275.5,266.5 Z"/></g>
<g><path style="opacity:0.004" fill="#fefffe" d="M 547.5,273.5 C 548.833,274.167 548.833,274.167 547.5,273.5 Z"/></g>
<g><path style="opacity:0.004" fill="#fefffe" d="M 129.5,275.5 C 130.833,276.167 130.833,276.167 129.5,275.5 Z"/></g>
<g><path style="opacity:1" fill="#050508" d="M 591.5,568.5 C 605.243,564.32 619.576,559.82 634.5,555C 650.909,548.72 665.409,539.553 678,527.5C 684.121,520.591 688.121,512.591 690,503.5C 690.667,499.5 690.667,495.5 690,491.5C 673.64,434.725 656.974,378.058 640,321.5C 636.879,311.415 631.379,302.915 623.5,296C 614.274,291.154 604.441,288.988 594,289.5C 584.047,289.636 574.214,290.803 564.5,293C 540.864,299.159 517.197,305.159 493.5,311C 483.5,311.667 473.5,311.667 463.5,311C 449.5,308.667 435.5,306.333 421.5,304C 396.146,299.26 377.979,308.427 367,331.5C 365.196,336.58 363.196,341.58 361,346.5C 347.96,392.332 334.46,437.998 320.5,483.5C 304.874,489.976 289.207,496.476 273.5,503C 259.228,510.23 246.561,518.23 235.5,527C 219.429,543.866 217.263,562.366 229,582.5C 246.107,599.938 266.107,612.938 289,621.5C 290.03,621.836 290.53,622.503 290.5,623.5C 269.062,615.87 249.896,604.537 233,589.5C 215.823,570.048 215.157,550.048 231,529.5C 244.88,516.466 260.713,506.299 278.5,499C 291.715,493.539 305.049,488.372 318.5,483.5C 333.425,434.556 348.258,385.556 363,336.5C 369.389,318.775 381.556,307.275 399.5,302C 406.167,301.333 412.833,301.333 419.5,302C 433.186,304.225 446.852,306.559 460.5,309C 475.965,311.363 491.298,310.696 506.5,307C 524.719,301.594 543.052,296.594 561.5,292C 577.677,288.015 594.01,287.015 610.5,289C 624.05,292.878 633.55,301.378 639,314.5C 657.441,373.927 675.107,433.594 692,493.5C 691.876,510.252 685.376,524.086 672.5,535C 648.251,552.481 621.251,563.648 591.5,568.5 Z"/></g>
<g><path style="opacity:1" fill="#14191d" d="M 591.5,568.5 C 591.158,569.338 590.492,569.672 589.5,569.5C 588.903,568.861 588.07,568.528 587,568.5C 512.53,582.729 438.03,583.062 363.5,569.5C 362.034,570.135 360.7,570.969 359.5,572C 380.726,579.553 401.059,584.72 420.5,587.5C 483.583,597.717 545.917,595.55 607.5,581C 628.081,575.745 648.081,568.078 667.5,558C 681.075,550.302 691.909,539.802 700,526.5C 703.247,519.179 705.08,511.512 705.5,503.5C 704.455,494.345 702.955,485.345 701,476.5C 725.606,480.035 749.106,487.202 771.5,498C 776.397,500.939 781.064,504.106 785.5,507.5C 789.747,512.985 793.247,518.985 796,525.5C 798.893,538.254 796.56,549.921 789,560.5C 782.378,567.198 775.545,573.532 768.5,579.5C 739.334,599.748 707.668,615.248 673.5,626C 565.523,656.362 456.189,660.695 345.5,639C 329.056,634.795 312.723,630.295 296.5,625.5C 294.214,625.405 292.214,624.738 290.5,623.5C 290.53,622.503 290.03,621.836 289,621.5C 266.107,612.938 246.107,599.938 229,582.5C 217.263,562.366 219.429,543.866 235.5,527C 246.561,518.23 259.228,510.23 273.5,503C 289.207,496.476 304.874,489.976 320.5,483.5C 334.46,437.998 347.96,392.332 361,346.5C 363.196,341.58 365.196,336.58 367,331.5C 377.979,308.427 396.146,299.26 421.5,304C 435.5,306.333 449.5,308.667 463.5,311C 473.5,311.667 483.5,311.667 493.5,311C 517.197,305.159 540.864,299.159 564.5,293C 574.214,290.803 584.047,289.636 594,289.5C 604.441,288.988 614.274,291.154 623.5,296C 631.379,302.915 636.879,311.415 640,321.5C 656.974,378.058 673.64,434.725 690,491.5C 690.667,495.5 690.667,499.5 690,503.5C 688.121,512.591 684.121,520.591 678,527.5C 665.409,539.553 650.909,548.72 634.5,555C 619.576,559.82 605.243,564.32 591.5,568.5 Z"/></g>
<g><path style="opacity:0.004" fill="#fefffe" d="M 93.5,297.5 C 94.8333,298.167 94.8333,298.167 93.5,297.5 Z"/></g>
<g><path style="opacity:0.004" fill="#fefffe" d="M 344.5,298.5 C 345.833,299.167 345.833,299.167 344.5,298.5 Z"/></g>
<g><path style="opacity:0.004" fill="#fefffe" d="M 488.5,306.5 C 489.833,307.167 489.833,307.167 488.5,306.5 Z"/></g>
<g><path style="opacity:0.004" fill="#fefffe" d="M 648.5,323.5 C 649.833,324.167 649.833,324.167 648.5,323.5 Z"/></g>
<g><path style="opacity:0.004" fill="#fefffe" d="M 716.5,345.5 C 717.833,346.167 717.833,346.167 716.5,345.5 Z"/></g>
<g><path style="opacity:0.004" fill="#fefffe" d="M 297.5,351.5 C 298.833,352.167 298.833,352.167 297.5,351.5 Z"/></g>
<g><path style="opacity:0.004" fill="#fefffe" d="M 152.5,352.5 C 153.833,353.167 153.833,353.167 152.5,352.5 Z"/></g>
<g><path style="opacity:0.004" fill="#fefffe" d="M 8.5,362.5 C 9.83333,363.167 9.83333,363.167 8.5,362.5 Z"/></g>
<g><path style="opacity:1" fill="#02b0fb" d="M 550.5,394.5 C 546.558,405.24 543.058,416.24 540,427.5C 539.211,429.712 539.378,431.712 540.5,433.5C 539.5,436.167 538.5,438.833 537.5,441.5C 536.85,441.804 536.183,442.137 535.5,442.5C 531.491,458.535 527.491,474.535 523.5,490.5C 523.5,490.833 523.5,491.167 523.5,491.5C 521.247,496.222 519.413,501.222 518,506.5C 516.981,507.687 515.814,508.687 514.5,509.5C 511.617,509.128 508.617,509.128 505.5,509.5C 504.769,507.251 503.769,505.084 502.5,503C 507.106,486.403 511.94,469.903 517,453.5C 518.825,446.205 520.325,438.872 521.5,431.5C 521.5,430.833 521.5,430.167 521.5,429.5C 523.081,427.326 524.581,424.993 526,422.5C 528.66,408.858 532.327,395.525 537,382.5C 537.893,381.919 538.893,381.585 540,381.5C 546.818,383.129 550.318,387.463 550.5,394.5 Z"/></g>
<g><path style="opacity:1" fill="#06192a" d="M 543.5,380.5 C 550.64,381.537 553.64,385.704 552.5,393C 549.861,402.305 547.694,411.805 546,421.5C 545.292,422.381 544.458,423.047 543.5,423.5C 545.992,413.866 548.325,404.199 550.5,394.5C 551.994,388.153 549.661,383.486 543.5,380.5 Z"/></g>
<g><path style="opacity:1" fill="#2bb0de" d="M 543.5,380.5 C 549.661,383.486 551.994,388.153 550.5,394.5C 550.318,387.463 546.818,383.129 540,381.5C 538.893,381.585 537.893,381.919 537,382.5C 532.327,395.525 528.66,408.858 526,422.5C 524.581,424.993 523.081,427.326 521.5,429.5C 526.095,413.547 530.595,397.547 535,381.5C 537.719,380.556 540.552,380.223 543.5,380.5 Z"/></g>
<g><path style="opacity:0.004" fill="#fefffe" d="M 295.5,403.5 C 296.833,404.167 296.833,404.167 295.5,403.5 Z"/></g>
<g><path style="opacity:1" fill="#2ab6e5" d="M 550.5,394.5 C 548.325,404.199 545.992,413.866 543.5,423.5C 542.13,426.619 541.13,429.952 540.5,433.5C 539.378,431.712 539.211,429.712 540,427.5C 543.058,416.24 546.558,405.24 550.5,394.5 Z"/></g>
<g><path style="opacity:1" fill="#07b1fa" d="M 601.5,425.5 C 605.192,427.344 608.525,429.677 611.5,432.5C 610.596,433.209 610.263,434.209 610.5,435.5C 613.325,435.081 615.491,436.081 617,438.5C 617.27,441.224 617.77,443.891 618.5,446.5C 617.626,448.747 617.292,451.08 617.5,453.5C 616.448,453.351 615.448,453.517 614.5,454C 600.415,463.741 586.582,473.907 573,484.5C 571.989,483.663 570.822,483.33 569.5,483.5C 568.648,480.777 567.481,478.11 566,475.5C 565.329,474.748 564.496,474.414 563.5,474.5C 562.609,473.739 561.942,472.739 561.5,471.5C 566.385,467.898 571.385,464.565 576.5,461.5C 580.657,458.92 584.99,456.587 589.5,454.5C 592.543,452.509 595.21,450.176 597.5,447.5C 598.681,445.865 598.681,444.198 597.5,442.5C 595.344,440.991 593.01,439.991 590.5,439.5C 588.938,439.267 587.605,438.6 586.5,437.5C 578.852,431.364 571.018,425.364 563,419.5C 562.751,417.332 563.584,415.665 565.5,414.5C 567.303,413.954 568.97,413.12 570.5,412C 569.594,410.301 569.261,408.467 569.5,406.5C 571.655,406.372 573.655,406.872 575.5,408C 577.699,409.697 580.032,411.197 582.5,412.5C 583.386,413.325 583.719,414.325 583.5,415.5C 584.873,415.343 586.207,415.51 587.5,416C 592.004,419.418 596.671,422.585 601.5,425.5 Z"/></g>
<g><path style="opacity:1" fill="#29b3df" d="M 601.5,425.5 C 596.671,422.585 592.004,419.418 587.5,416C 586.207,415.51 584.873,415.343 583.5,415.5C 583.719,414.325 583.386,413.325 582.5,412.5C 580.032,411.197 577.699,409.697 575.5,408C 573.655,406.872 571.655,406.372 569.5,406.5C 569.261,408.467 569.594,410.301 570.5,412C 568.97,413.12 567.303,413.954 565.5,414.5C 567.5,411.159 568.5,407.493 568.5,403.5C 573.048,405.107 577.381,407.274 581.5,410C 588.416,414.945 595.083,420.111 601.5,425.5 Z"/></g>
<g><path style="opacity:1" fill="#27b6e5" d="M 497.5,416.5 C 498.043,416.56 498.376,416.893 498.5,417.5C 497.687,418.814 496.687,419.981 495.5,421C 488.287,426.386 480.954,431.553 473.5,436.5C 473.414,435.504 473.748,434.671 474.5,434C 475.9,432.562 477.567,431.729 479.5,431.5C 479.5,430.167 479.5,428.833 479.5,427.5C 481.199,427.66 482.866,427.494 484.5,427C 488.67,423.277 493.003,419.777 497.5,416.5 Z"/></g>
<g><path style="opacity:1" fill="#04b1fb" d="M 497.5,416.5 C 493.003,419.777 488.67,423.277 484.5,427C 482.866,427.494 481.199,427.66 479.5,427.5C 479.5,428.833 479.5,430.167 479.5,431.5C 477.567,431.729 475.9,432.562 474.5,434C 473.748,434.671 473.414,435.504 473.5,436.5C 468.834,439.305 463.834,441.472 458.5,443C 459.925,444.714 459.592,446.047 457.5,447C 458.211,448.255 459.044,449.421 460,450.5C 461.871,449.332 463.371,449.832 464.5,452C 465.793,452.49 467.127,452.657 468.5,452.5C 469.167,452.5 469.5,452.833 469.5,453.5C 470.788,458.793 474.121,461.46 479.5,461.5C 480.349,464.036 481.349,466.536 482.5,469C 483.5,469.5 484.5,470 485.5,470.5C 486.768,469.572 488.101,469.405 489.5,470C 491.605,472.021 493.605,474.021 495.5,476C 494.576,477.811 493.743,477.645 493,475.5C 490.954,477.7 489.954,480.367 490,483.5C 486.703,486.085 483.536,485.752 480.5,482.5C 481.498,479.972 482.331,479.972 483,482.5C 485.236,480.324 484.736,478.991 481.5,478.5C 480.452,479.383 479.285,480.05 478,480.5C 476.14,478.799 473.973,477.799 471.5,477.5C 471.489,475.983 470.823,474.816 469.5,474C 465.598,471.249 461.598,468.749 457.5,466.5C 452.69,461.499 447.523,456.833 442,452.5C 440.964,447.574 441.464,442.907 443.5,438.5C 446.5,436 449.5,433.5 452.5,431C 453.448,430.517 454.448,430.351 455.5,430.5C 455.5,429.5 455.5,428.5 455.5,427.5C 463.92,420.777 472.586,414.277 481.5,408C 484.286,405.94 487.286,404.44 490.5,403.5C 491.515,408.528 493.848,412.861 497.5,416.5 Z"/></g>
<g><path style="opacity:1" fill="#24b7e8" d="M 590.5,439.5 C 593.01,439.991 595.344,440.991 597.5,442.5C 598.681,444.198 598.681,445.865 597.5,447.5C 595.21,450.176 592.543,452.509 589.5,454.5C 584.99,456.587 580.657,458.92 576.5,461.5C 578.36,460.061 580.027,458.395 581.5,456.5C 587.123,453.347 592.457,449.68 597.5,445.5C 594.909,443.719 592.575,441.719 590.5,439.5 Z"/></g>
<g><path style="opacity:0.004" fill="#fefffe" d="M 237.5,445.5 C 238.833,446.167 238.833,446.167 237.5,445.5 Z"/></g>
<g><path style="opacity:1" fill="#28b7ea" d="M 537.5,441.5 C 533.608,458.161 528.942,474.495 523.5,490.5C 527.491,474.535 531.491,458.535 535.5,442.5C 536.183,442.137 536.85,441.804 537.5,441.5 Z"/></g>
<g><path style="opacity:1" fill="#0f1a26" d="M 469.5,440.5 C 468.12,442.719 468.454,444.719 470.5,446.5C 469.689,447.216 469.022,448.05 468.5,449C 469.506,450.338 470.506,451.671 471.5,453C 472.784,453.684 473.951,453.517 475,452.5C 476.188,453.563 476.688,454.897 476.5,456.5C 479.354,456.924 482.021,457.924 484.5,459.5C 485.366,462.692 487.032,465.359 489.5,467.5C 482.862,462.843 476.196,458.176 469.5,453.5C 469.5,452.833 469.167,452.5 468.5,452.5C 466.186,450.523 463.853,448.523 461.5,446.5C 463.83,444.007 466.497,442.007 469.5,440.5 Z"/></g>
<g><path style="opacity:1" fill="#1eb5ed" d="M 473.5,436.5 C 472.167,437.833 470.833,439.167 469.5,440.5C 466.497,442.007 463.83,444.007 461.5,446.5C 463.853,448.523 466.186,450.523 468.5,452.5C 467.127,452.657 465.793,452.49 464.5,452C 463.371,449.832 461.871,449.332 460,450.5C 459.044,449.421 458.211,448.255 457.5,447C 459.592,446.047 459.925,444.714 458.5,443C 463.834,441.472 468.834,439.305 473.5,436.5 Z"/></g>
<g><path style="opacity:1" fill="#26b2db" d="M 611.5,432.5 C 620.826,437.535 622.826,444.535 617.5,453.5C 617.292,451.08 617.626,448.747 618.5,446.5C 617.77,443.891 617.27,441.224 617,438.5C 615.491,436.081 613.325,435.081 610.5,435.5C 610.263,434.209 610.596,433.209 611.5,432.5 Z"/></g>
<g><path style="opacity:1" fill="#28b5e4" d="M 455.5,427.5 C 455.5,428.5 455.5,429.5 455.5,430.5C 454.448,430.351 453.448,430.517 452.5,431C 449.5,433.5 446.5,436 443.5,438.5C 441.464,442.907 440.964,447.574 442,452.5C 447.523,456.833 452.69,461.499 457.5,466.5C 456.391,466.443 455.391,466.11 454.5,465.5C 449.978,461.635 445.478,457.635 441,453.5C 439.684,450.312 439.184,446.978 439.5,443.5C 439.608,441.217 440.441,439.217 442,437.5C 446.096,433.564 450.596,430.23 455.5,427.5 Z"/></g>
<g><path style="opacity:1" fill="#0c1d2d" d="M 586.5,437.5 C 587.605,438.6 588.938,439.267 590.5,439.5C 592.575,441.719 594.909,443.719 597.5,445.5C 592.457,449.68 587.123,453.347 581.5,456.5C 581.047,455.542 580.381,454.708 579.5,454C 581.198,454.497 582.865,454.33 584.5,453.5C 585.711,452.726 585.711,451.893 584.5,451C 588.203,450.156 591.203,448.323 593.5,445.5C 592.403,443.465 590.737,442.132 588.5,441.5C 587.37,440.378 586.703,439.044 586.5,437.5 Z"/></g>
<g><path style="opacity:1" fill="#28b0de" d="M 521.5,431.5 C 520.325,438.872 518.825,446.205 517,453.5C 511.94,469.903 507.106,486.403 502.5,503C 503.769,505.084 504.769,507.251 505.5,509.5C 508.617,509.128 511.617,509.128 514.5,509.5C 515.814,508.687 516.981,507.687 518,506.5C 519.413,501.222 521.247,496.222 523.5,491.5C 522.654,498.056 520.654,504.222 517.5,510C 512.312,512.349 507.478,511.849 503,508.5C 502.015,506.634 501.515,504.634 501.5,502.5C 507.393,478.504 514.06,454.837 521.5,431.5 Z"/></g>
<g><path style="opacity:1" fill="#081c33" d="M 439.5,443.5 C 439.184,446.978 439.684,450.312 441,453.5C 445.478,457.635 449.978,461.635 454.5,465.5C 452.307,464.32 449.974,463.32 447.5,462.5C 445.5,459.833 443.167,457.5 440.5,455.5C 438.388,451.524 438.055,447.524 439.5,443.5 Z"/></g>
<g><path style="opacity:0.004" fill="#fefffe" d="M 96.5,462.5 C 97.8333,463.167 97.8333,463.167 96.5,462.5 Z"/></g>
<g><path style="opacity:1" fill="#27b5e4" d="M 617.5,453.5 C 602.683,464.803 587.683,475.97 572.5,487C 571.365,487.749 570.365,487.583 569.5,486.5C 568.001,482.168 566.001,478.168 563.5,474.5C 564.496,474.414 565.329,474.748 566,475.5C 567.481,478.11 568.648,480.777 569.5,483.5C 570.822,483.33 571.989,483.663 573,484.5C 586.582,473.907 600.415,463.741 614.5,454C 615.448,453.517 616.448,453.351 617.5,453.5 Z"/></g>
<g><path style="opacity:0.004" fill="#fefffe" d="M 1000.5,470.5 C 1001.83,471.167 1001.83,471.167 1000.5,470.5 Z"/></g>
<g><path style="opacity:1" fill="#28bae6" d="M 457.5,466.5 C 461.598,468.749 465.598,471.249 469.5,474C 470.823,474.816 471.489,475.983 471.5,477.5C 466.431,474.305 461.765,470.638 457.5,466.5 Z"/></g>
<g><path style="opacity:0.004" fill="#fefffe" d="M 792.5,473.5 C 793.833,474.167 793.833,474.167 792.5,473.5 Z"/></g>
<g><path style="opacity:1" fill="#1db5ec" d="M 469.5,453.5 C 476.196,458.176 482.862,462.843 489.5,467.5C 492.651,469.819 495.318,472.653 497.5,476C 495.347,478.822 493.181,481.656 491,484.5C 489.991,486.025 489.491,487.692 489.5,489.5C 488.127,489.657 486.793,489.49 485.5,489C 480.935,484.925 476.268,481.091 471.5,477.5C 473.973,477.799 476.14,478.799 478,480.5C 479.285,480.05 480.452,479.383 481.5,478.5C 484.736,478.991 485.236,480.324 483,482.5C 482.331,479.972 481.498,479.972 480.5,482.5C 483.536,485.752 486.703,486.085 490,483.5C 489.954,480.367 490.954,477.7 493,475.5C 493.743,477.645 494.576,477.811 495.5,476C 493.605,474.021 491.605,472.021 489.5,470C 488.101,469.405 486.768,469.572 485.5,470.5C 484.5,470 483.5,469.5 482.5,469C 481.349,466.536 480.349,464.036 479.5,461.5C 474.121,461.46 470.788,458.793 469.5,453.5 Z"/></g>
<g><path style="opacity:0.004" fill="#fefffe" d="M 972.5,485.5 C 973.833,486.167 973.833,486.167 972.5,485.5 Z"/></g>
<g><path style="opacity:0.004" fill="#fefffe" d="M 873.5,487.5 C 874.833,488.167 874.833,488.167 873.5,487.5 Z"/></g>
<g><path style="opacity:0.784" fill="#040406" d="M 785.5,507.5 C 797.045,517.659 801.211,530.325 798,545.5C 792.264,560.402 782.431,571.735 768.5,579.5C 775.545,573.532 782.378,567.198 789,560.5C 796.56,549.921 798.893,538.254 796,525.5C 793.247,518.985 789.747,512.985 785.5,507.5 Z"/></g>
<g><path style="opacity:0.004" fill="#fefffe" d="M 71.5,548.5 C 72.8333,549.167 72.8333,549.167 71.5,548.5 Z"/></g>
<g><path style="opacity:0.734" fill="#030407" d="M 785.5,507.5 C 781.064,504.106 776.397,500.939 771.5,498C 749.106,487.202 725.606,480.035 701,476.5C 702.955,485.345 704.455,494.345 705.5,503.5C 705.08,511.512 703.247,519.179 700,526.5C 691.909,539.802 681.075,550.302 667.5,558C 648.081,568.078 628.081,575.745 607.5,581C 545.917,595.55 483.583,597.717 420.5,587.5C 401.059,584.72 380.726,579.553 359.5,572C 360.7,570.969 362.034,570.135 363.5,569.5C 438.03,583.062 512.53,582.729 587,568.5C 588.07,568.528 588.903,568.861 589.5,569.5C 533.246,580.058 476.58,583.224 419.5,579C 400.72,577.126 382.053,574.792 363.5,572C 449.518,598.208 535.851,599.208 622.5,575C 643.453,568.856 662.786,559.522 680.5,547C 692.446,537.931 699.946,526.098 703,511.5C 703.667,506.167 703.667,500.833 703,495.5C 701.496,488.819 699.996,482.153 698.5,475.5C 725.349,478.044 750.683,485.544 774.5,498C 778.949,500.284 782.616,503.451 785.5,507.5 Z"/></g>
<g><path style="opacity:0.004" fill="#fefffe" d="M 855.5,607.5 C 856.833,608.167 856.833,608.167 855.5,607.5 Z"/></g>
<g><path style="opacity:0.004" fill="#fefffe" d="M 864.5,607.5 C 865.833,608.167 865.833,608.167 864.5,607.5 Z"/></g>
<g><path style="opacity:0.735" fill="#040507" d="M 768.5,579.5 C 743.919,598.129 716.919,612.629 687.5,623C 577.403,656.747 465.736,663.08 352.5,642C 333.163,638.338 314.496,632.838 296.5,625.5C 312.723,630.295 329.056,634.795 345.5,639C 456.189,660.695 565.523,656.362 673.5,626C 707.668,615.248 739.334,599.748 768.5,579.5 Z"/></g>
<g><path style="opacity:0.004" fill="#fefffe" d="M 76.5,647.5 C 77.8333,648.167 77.8333,648.167 76.5,647.5 Z"/></g>
<g><path style="opacity:0.004" fill="#fefffe" d="M 800.5,648.5 C 801.833,649.167 801.833,649.167 800.5,648.5 Z"/></g>
<g><path style="opacity:0.004" fill="#fefffe" d="M 686.5,652.5 C 687.833,653.167 687.833,653.167 686.5,652.5 Z"/></g>
<g><path style="opacity:0.004" fill="#fefffe" d="M 692.5,675.5 C 693.833,676.167 693.833,676.167 692.5,675.5 Z"/></g>
<g><path style="opacity:0.004" fill="#fefffe" d="M 478.5,683.5 C 479.833,684.167 479.833,684.167 478.5,683.5 Z"/></g>
<g><path style="opacity:0.004" fill="#fefffe" d="M 762.5,764.5 C 763.833,765.167 763.833,765.167 762.5,764.5 Z"/></g>
<g><path style="opacity:0.004" fill="#fefffe" d="M 792.5,792.5 C 793.833,793.167 793.833,793.167 792.5,792.5 Z"/></g>
<g><path style="opacity:0.004" fill="#fefffe" d="M 827.5,796.5 C 828.833,797.167 828.833,797.167 827.5,796.5 Z"/></g>
<g><path style="opacity:0.004" fill="#fefffe" d="M 274.5,805.5 C 275.833,806.167 275.833,806.167 274.5,805.5 Z"/></g>
<g><path style="opacity:0.004" fill="#fefffe" d="M 37.5,835.5 C 38.8333,836.167 38.8333,836.167 37.5,835.5 Z"/></g>
<g><path style="opacity:0.004" fill="#fefffe" d="M 931.5,862.5 C 932.833,863.167 932.833,863.167 931.5,862.5 Z"/></g>
<g><path style="opacity:0.004" fill="#fefffe" d="M 526.5,864.5 C 527.833,865.167 527.833,865.167 526.5,864.5 Z"/></g>
<g><path style="opacity:0.004" fill="#fefffe" d="M 337.5,889.5 C 338.833,890.167 338.833,890.167 337.5,889.5 Z"/></g>
<g><path style="opacity:0.004" fill="#fefffe" d="M 948.5,895.5 C 949.833,896.167 949.833,896.167 948.5,895.5 Z"/></g>
<g><path style="opacity:0.004" fill="#fefffe" d="M 522.5,906.5 C 523.833,907.167 523.833,907.167 522.5,906.5 Z"/></g>
<g><path style="opacity:0.004" fill="#fefffe" d="M 611.5,907.5 C 612.833,908.167 612.833,908.167 611.5,907.5 Z"/></g>
<g><path style="opacity:0.004" fill="#fefffe" d="M 862.5,920.5 C 863.833,921.167 863.833,921.167 862.5,920.5 Z"/></g>
<g><path style="opacity:0.004" fill="#fefffe" d="M 353.5,921.5 C 354.833,922.167 354.833,922.167 353.5,921.5 Z"/></g>
<g><path style="opacity:0.004" fill="#fefffe" d="M 18.5,929.5 C 19.8333,930.167 19.8333,930.167 18.5,929.5 Z"/></g>
<g><path style="opacity:0.004" fill="#fefffe" d="M 426.5,930.5 C 427.833,931.167 427.833,931.167 426.5,930.5 Z"/></g>
<g><path style="opacity:0.004" fill="#fefffe" d="M 616.5,938.5 C 617.833,939.167 617.833,939.167 616.5,938.5 Z"/></g>
<g><path style="opacity:0.004" fill="#fefffe" d="M 562.5,948.5 C 563.833,949.167 563.833,949.167 562.5,948.5 Z"/></g>
<g><path style="opacity:0.004" fill="#fefffe" d="M 893.5,950.5 C 894.833,951.167 894.833,951.167 893.5,950.5 Z"/></g>
<g><path style="opacity:0.004" fill="#fefffe" d="M 445.5,958.5 C 446.833,959.167 446.833,959.167 445.5,958.5 Z"/></g>
<g><path style="opacity:0.004" fill="#fefffe" d="M 772.5,964.5 C 773.833,965.167 773.833,965.167 772.5,964.5 Z"/></g>
<g><path style="opacity:0.004" fill="#fefffe" d="M 111.5,965.5 C 112.833,966.167 112.833,966.167 111.5,965.5 Z"/></g>
<g><path style="opacity:0.004" fill="#fefffe" d="M 922.5,972.5 C 923.833,973.167 923.833,973.167 922.5,972.5 Z"/></g>
<g><path style="opacity:0.004" fill="#fefffe" d="M 724.5,976.5 C 725.833,977.167 725.833,977.167 724.5,976.5 Z"/></g>
<g><path style="opacity:0.004" fill="#fefffe" d="M 657.5,977.5 C 658.833,978.167 658.833,978.167 657.5,977.5 Z"/></g>
<g><path style="opacity:0.004" fill="#fefffe" d="M 685.5,990.5 C 686.833,991.167 686.833,991.167 685.5,990.5 Z"/></g>
<g><path style="opacity:0.004" fill="#fefffe" d="M 470.5,997.5 C 471.833,998.167 471.833,998.167 470.5,997.5 Z"/></g>
<g><path style="opacity:0.004" fill="#fefffe" d="M 749.5,1009.5 C 750.833,1010.17 750.833,1010.17 749.5,1009.5 Z"/></g>
<g><path style="opacity:0.004" fill="#fefffe" d="M 1006.5,1013.5 C 1007.83,1014.17 1007.83,1014.17 1006.5,1013.5 Z"/></g>
</svg>
